<svg id="visual" viewBox="0 0 900 600" width="900" height="600" xmlns="http://www.w3.org/2000/svg" xmlns:xlink="http://www.w3.org/1999/xlink" version="1.1"><path d="M0 61L37.5 71C75 81 150 101 225 106C300 111 375 101 450 95C525 89 600 87 675 93C750 99 825 113 862.5 120L900 127L900 0L862.5 0C825 0 750 0 675 0C600 0 525 0 450 0C375 0 300 0 225 0C150 0 75 0 37.5 0L0 0Z" fill="#dfeeeb"></path><path d="M0 271L37.5 269C75 267 150 263 225 265C300 267 375 275 450 283C525 291 600 299 675 302C750 305 825 303 862.5 302L900 301L900 125L862.5 118C825 111 750 97 675 91C600 85 525 87 450 93C375 99 300 109 225 104C150 99 75 79 37.5 69L0 59Z" fill="#d4e9e4"></path><path d="M0 469L37.5 465C75 461 150 453 225 447C300 441 375 437 450 439C525 441 600 449 675 452C750 455 825 453 862.5 452L900 451L900 299L862.5 300C825 301 750 303 675 300C600 297 525 289 450 281C375 273 300 265 225 263C150 261 75 265 37.5 267L0 269Z" fill="#c9e3dd"></path><path d="M0 601L37.5 601C75 601 150 601 225 601C300 601 375 601 450 601C525 601 600 601 675 601C750 601 825 601 862.5 601L900 601L900 449L862.5 450C825 451 750 453 675 450C600 447 525 439 450 437C375 435 300 439 225 445C150 451 75 459 37.5 463L0 467Z" fill="#bcdcd5"></path></svg>